<svg width="543" height="318" viewBox="0 0 543 318" fill="none" xmlns="http://www.w3.org/2000/svg">
<path d="M0 113H173V318H0V113Z" fill="#0029FF"/>
<rect x="185" y="45" width="173" height="273" fill="#0029FF"/>
<rect x="370" y="181" width="173" height="137" fill="#0029FF"/>
<path d="M19.96 86.76C19.96 94.04 25.24 97.4 32.6 97.4C39.84 97.4 44.64 93.84 44.64 86.48C44.64 80.16 40.88 76.52 35.68 76.52C31.68 76.52 28.72 78.52 27.2 82.16L26.08 81.52L27.04 78.44V73.28H42.48V68.8H21.88V80.96L27.88 84.32C29.4 82.28 31.4 81 34.24 81C37.8 81 39.48 83 39.48 86.52C39.48 90.72 37.4 92.92 32.6 92.92C27.36 92.92 25.08 90.8 25.08 86.76H19.96ZM61.0841 68.4C52.8041 68.4 48.1241 74.4 48.1241 82.88C48.1241 91.4 52.8041 97.4 61.0841 97.4C69.3241 97.4 74.0041 91.4 74.0041 82.88C74.0041 74.4 69.3241 68.4 61.0841 68.4ZM61.0841 72.88C63.0041 72.88 64.6041 73.44 65.8441 74.44L54.0041 87.84C53.4841 86.44 53.2441 84.76 53.2441 82.88C53.2441 76.68 56.0441 72.88 61.0841 72.88ZM61.0841 92.92C59.1241 92.92 57.5241 92.36 56.2841 91.32L68.1641 77.96C68.6441 79.36 68.8841 81 68.8841 82.88C68.8841 89.12 66.1241 92.92 61.0841 92.92ZM90.6153 68.4C82.3353 68.4 77.6553 74.4 77.6553 82.88C77.6553 91.4 82.3353 97.4 90.6153 97.4C98.8553 97.4 103.535 91.4 103.535 82.88C103.535 74.4 98.8553 68.4 90.6153 68.4ZM90.6153 72.88C92.5353 72.88 94.1353 73.44 95.3753 74.44L83.5353 87.84C83.0153 86.44 82.7753 84.76 82.7753 82.88C82.7753 76.68 85.5753 72.88 90.6153 72.88ZM90.6153 92.92C88.6553 92.92 87.0553 92.36 85.8153 91.32L97.6953 77.96C98.1753 79.36 98.4153 81 98.4153 82.88C98.4153 89.12 95.6553 92.92 90.6153 92.92ZM135.291 97H141.171L133.971 86.48L137.811 84.56C139.291 83.84 140.011 82.72 139.971 81.04L139.811 76.92H134.691L134.891 80.68L125.291 85.48V67.6H120.131V97H125.291V90.8L129.611 88.64L135.291 97ZM144.389 97H149.549V81.12L159.909 81.4V76.92L147.549 76.6C145.509 76.52 144.389 77.64 144.389 79.68V97Z" fill="black"/>
<path d="M22.696 288.32H25.32C25.32 281.6 28.296 279.36 32.456 279.36C35.88 279.36 37.832 281.184 37.832 284.672C37.832 292.928 25.32 295.104 23.016 295.424V300H40.456V297.76H25.64L23.784 298.176V297.44C33.096 295.968 40.456 292.032 40.456 284.704C40.456 279.776 37.192 277.12 32.392 277.12C26.984 277.12 22.696 280.192 22.696 288.32ZM47.7183 300.32C49.1903 300.32 50.3743 299.168 50.3743 297.632C50.3743 296.16 49.1903 295.008 47.7183 295.008C46.2143 295.008 45.0623 296.16 45.0623 297.632C45.0623 299.168 46.2143 300.32 47.7183 300.32ZM66.0235 284.096V305.824H68.6475V297.664L68.2315 295.872H68.9675C69.6395 298.336 71.7515 300.32 75.3995 300.32C80.0075 300.32 82.9835 296.768 82.9835 292.064C82.9835 287.328 80.0075 283.776 75.3995 283.776C71.7515 283.776 69.6395 285.76 68.9675 288.256H68.2315L68.6475 286.432V284.096H66.0235ZM68.6475 292.064C68.6475 287.808 71.3675 286.016 74.6315 286.016C77.9275 286.016 80.3595 287.872 80.3595 292.064C80.3595 296.224 77.9275 298.08 74.6315 298.08C71.3675 298.08 68.6475 296.288 68.6475 292.064ZM84.5635 300H96.0835V297.76H91.6355V278.368C91.6355 276.864 90.9315 276.032 89.4595 276.16L85.7475 276.48V278.72L89.0435 278.432V297.76H84.5635V300ZM98.7898 295.584C98.7898 297.248 99.4938 300.32 104.102 300.32C107.942 300.32 109.638 298.048 110.246 295.616H111.014L110.598 297.28V298.144C110.598 299.328 111.27 300 112.486 300H115.302V297.76H112.966V290.976C112.966 286.72 110.31 283.776 105.862 283.776C101.35 283.776 98.8538 286.72 98.8538 290.016H101.414C101.414 287.008 103.558 285.984 105.862 285.984C108.614 285.984 110.182 287.424 110.342 290.336L104.006 290.944C100.294 291.328 98.7898 293.056 98.7898 295.584ZM101.414 295.264C101.414 293.696 102.438 293.088 104.454 292.896L110.342 292.288C110.342 295.584 108.038 298.08 104.422 298.08C102.566 298.08 101.414 297.088 101.414 295.264ZM130.631 295.872C130.631 292.448 127.239 291.744 124.103 290.72C121.543 289.888 120.455 289.408 120.455 287.872C120.455 286.432 121.863 285.92 123.623 285.92C126.151 285.92 127.463 286.976 127.463 289.12H130.087C130.087 286.496 128.583 283.776 123.623 283.776C119.975 283.776 117.831 285.44 117.831 287.968C117.831 290.848 120.263 291.776 123.271 292.736C125.863 293.536 128.007 293.888 128.007 295.968C128.007 297.6 126.855 298.176 124.391 298.176C121.319 298.176 119.719 296.896 119.719 294.144H117.095C117.095 297.92 119.207 300.32 124.359 300.32C129.127 300.32 130.631 298.272 130.631 295.872ZM146.537 295.872C146.537 292.448 143.145 291.744 140.009 290.72C137.449 289.888 136.361 289.408 136.361 287.872C136.361 286.432 137.769 285.92 139.529 285.92C142.057 285.92 143.369 286.976 143.369 289.12H145.993C145.993 286.496 144.489 283.776 139.529 283.776C135.881 283.776 133.737 285.44 133.737 287.968C133.737 290.848 136.169 291.776 139.177 292.736C141.769 293.536 143.913 293.888 143.913 295.968C143.913 297.6 142.761 298.176 140.297 298.176C137.225 298.176 135.625 296.896 135.625 294.144H133.001C133.001 297.92 135.113 300.32 140.265 300.32C145.033 300.32 146.537 298.272 146.537 295.872Z" fill="white"/>
<path d="M395.92 291.392C395.92 297.632 399.408 300.32 405.2 300.32C410.608 300.32 413.648 297.792 413.648 293.76C413.648 290.304 411.856 289.056 408.976 288.48V287.744C411.856 287.296 413.328 285.856 413.328 283.104C413.328 279.648 410.608 277.12 405.2 277.12C399.408 277.12 396.24 279.808 396.24 284.832H398.864C398.864 281.152 400.656 279.36 405.2 279.36C409.296 279.36 410.704 281.024 410.704 283.456C410.704 285.888 409.392 287.008 406.672 287.008H403.536V289.248H406.672C409.392 289.248 411.024 290.4 411.024 293.376C411.024 296.416 409.296 298.08 405.2 298.08C400.656 298.08 398.544 296.288 398.544 291.392H395.92ZM420.968 300.32C422.44 300.32 423.624 299.168 423.624 297.632C423.624 296.16 422.44 295.008 420.968 295.008C419.464 295.008 418.312 296.16 418.312 297.632C418.312 299.168 419.464 300.32 420.968 300.32ZM439.274 284.096V305.824H441.898V297.664L441.482 295.872H442.218C442.89 298.336 445.002 300.32 448.65 300.32C453.258 300.32 456.234 296.768 456.234 292.064C456.234 287.328 453.258 283.776 448.65 283.776C445.002 283.776 442.89 285.76 442.218 288.256H441.482L441.898 286.432V284.096H439.274ZM441.898 292.064C441.898 287.808 444.618 286.016 447.882 286.016C451.178 286.016 453.61 287.872 453.61 292.064C453.61 296.224 451.178 298.08 447.882 298.08C444.618 298.08 441.898 296.288 441.898 292.064ZM457.814 300H469.334V297.76H464.885V278.368C464.885 276.864 464.182 276.032 462.71 276.16L458.998 276.48V278.72L462.294 278.432V297.76H457.814V300ZM472.04 295.584C472.04 297.248 472.744 300.32 477.352 300.32C481.192 300.32 482.888 298.048 483.496 295.616H484.264L483.848 297.28V298.144C483.848 299.328 484.52 300 485.736 300H488.552V297.76H486.216V290.976C486.216 286.72 483.56 283.776 479.112 283.776C474.6 283.776 472.104 286.72 472.104 290.016H474.664C474.664 287.008 476.808 285.984 479.112 285.984C481.864 285.984 483.432 287.424 483.592 290.336L477.256 290.944C473.544 291.328 472.04 293.056 472.04 295.584ZM474.664 295.264C474.664 293.696 475.688 293.088 477.704 292.896L483.592 292.288C483.592 295.584 481.288 298.08 477.672 298.08C475.816 298.08 474.664 297.088 474.664 295.264ZM503.881 295.872C503.881 292.448 500.489 291.744 497.353 290.72C494.793 289.888 493.705 289.408 493.705 287.872C493.705 286.432 495.113 285.92 496.873 285.92C499.401 285.92 500.713 286.976 500.713 289.12H503.337C503.337 286.496 501.833 283.776 496.873 283.776C493.225 283.776 491.081 285.44 491.081 287.968C491.081 290.848 493.513 291.776 496.521 292.736C499.113 293.536 501.257 293.888 501.257 295.968C501.257 297.6 500.105 298.176 497.641 298.176C494.569 298.176 492.969 296.896 492.969 294.144H490.345C490.345 297.92 492.457 300.32 497.609 300.32C502.377 300.32 503.881 298.272 503.881 295.872ZM519.787 295.872C519.787 292.448 516.395 291.744 513.259 290.72C510.699 289.888 509.611 289.408 509.611 287.872C509.611 286.432 511.019 285.92 512.779 285.92C515.307 285.92 516.619 286.976 516.619 289.12H519.243C519.243 286.496 517.739 283.776 512.779 283.776C509.131 283.776 506.987 285.44 506.987 287.968C506.987 290.848 509.419 291.776 512.427 292.736C515.019 293.536 517.163 293.888 517.163 295.968C517.163 297.6 516.011 298.176 513.547 298.176C510.475 298.176 508.875 296.896 508.875 294.144H506.251C506.251 297.92 508.363 300.32 513.515 300.32C518.283 300.32 519.787 298.272 519.787 295.872Z" fill="white"/>
<path d="M210.664 287.456L211.496 289.696C217.096 287.872 218.536 283.168 218.856 278.176H219.624L219.176 280V300H221.8V277.44H216.488C216.424 281.888 214.952 285.728 210.664 287.456ZM229.75 300.32C231.222 300.32 232.406 299.168 232.406 297.632C232.406 296.16 231.222 295.008 229.75 295.008C228.246 295.008 227.094 296.16 227.094 297.632C227.094 299.168 228.246 300.32 229.75 300.32ZM248.055 284.096V305.824H250.679V297.664L250.263 295.872H250.999C251.671 298.336 253.783 300.32 257.431 300.32C262.039 300.32 265.015 296.768 265.015 292.064C265.015 287.328 262.039 283.776 257.431 283.776C253.783 283.776 251.671 285.76 250.999 288.256H250.263L250.679 286.432V284.096H248.055ZM250.679 292.064C250.679 287.808 253.399 286.016 256.663 286.016C259.959 286.016 262.391 287.872 262.391 292.064C262.391 296.224 259.959 298.08 256.663 298.08C253.399 298.08 250.679 296.288 250.679 292.064ZM266.595 300H278.115V297.76H273.667V278.368C273.667 276.864 272.963 276.032 271.491 276.16L267.779 276.48V278.72L271.075 278.432V297.76H266.595V300ZM280.821 295.584C280.821 297.248 281.525 300.32 286.133 300.32C289.973 300.32 291.669 298.048 292.277 295.616H293.045L292.629 297.28V298.144C292.629 299.328 293.301 300 294.517 300H297.333V297.76H294.997V290.976C294.997 286.72 292.341 283.776 287.893 283.776C283.381 283.776 280.885 286.72 280.885 290.016H283.445C283.445 287.008 285.589 285.984 287.893 285.984C290.645 285.984 292.213 287.424 292.373 290.336L286.037 290.944C282.325 291.328 280.821 293.056 280.821 295.584ZM283.445 295.264C283.445 293.696 284.469 293.088 286.485 292.896L292.373 292.288C292.373 295.584 290.069 298.08 286.453 298.08C284.597 298.08 283.445 297.088 283.445 295.264ZM312.662 295.872C312.662 292.448 309.27 291.744 306.134 290.72C303.574 289.888 302.486 289.408 302.486 287.872C302.486 286.432 303.894 285.92 305.654 285.92C308.182 285.92 309.494 286.976 309.494 289.12H312.118C312.118 286.496 310.614 283.776 305.654 283.776C302.006 283.776 299.862 285.44 299.862 287.968C299.862 290.848 302.294 291.776 305.302 292.736C307.894 293.536 310.038 293.888 310.038 295.968C310.038 297.6 308.886 298.176 306.422 298.176C303.35 298.176 301.75 296.896 301.75 294.144H299.126C299.126 297.92 301.238 300.32 306.39 300.32C311.158 300.32 312.662 298.272 312.662 295.872ZM328.568 295.872C328.568 292.448 325.176 291.744 322.04 290.72C319.48 289.888 318.392 289.408 318.392 287.872C318.392 286.432 319.8 285.92 321.56 285.92C324.088 285.92 325.4 286.976 325.4 289.12H328.024C328.024 286.496 326.52 283.776 321.56 283.776C317.912 283.776 315.768 285.44 315.768 287.968C315.768 290.848 318.2 291.776 321.208 292.736C323.8 293.536 325.944 293.888 325.944 295.968C325.944 297.6 324.792 298.176 322.328 298.176C319.256 298.176 317.656 296.896 317.656 294.144H315.032C315.032 297.92 317.144 300.32 322.296 300.32C327.064 300.32 328.568 298.272 328.568 295.872Z" fill="white"/>
<path d="M214.24 30H219.64C219.64 19.2 223.28 13.32 231.72 9.56V1.8H210.28V6.28H227.32L230.36 5.36V6.68C220.16 10.52 214.24 17.8 214.24 30ZM246.967 1.4C238.687 1.4 234.007 7.4 234.007 15.88C234.007 24.4 238.687 30.4 246.967 30.4C255.207 30.4 259.887 24.4 259.887 15.88C259.887 7.4 255.207 1.4 246.967 1.4ZM246.967 5.88C248.887 5.88 250.487 6.44 251.727 7.44L239.887 20.84C239.367 19.44 239.127 17.76 239.127 15.88C239.127 9.68 241.927 5.88 246.967 5.88ZM246.967 25.92C245.007 25.92 243.407 25.36 242.167 24.32L254.047 10.96C254.527 12.36 254.767 14 254.767 15.88C254.767 22.12 252.007 25.92 246.967 25.92ZM276.498 1.4C268.218 1.4 263.538 7.4 263.538 15.88C263.538 24.4 268.218 30.4 276.498 30.4C284.738 30.4 289.418 24.4 289.418 15.88C289.418 7.4 284.738 1.4 276.498 1.4ZM276.498 5.88C278.418 5.88 280.018 6.44 281.258 7.44L269.418 20.84C268.898 19.44 268.658 17.76 268.658 15.88C268.658 9.68 271.458 5.88 276.498 5.88ZM276.498 25.92C274.538 25.92 272.938 25.36 271.698 24.32L283.578 10.96C284.058 12.36 284.298 14 284.298 15.88C284.298 22.12 281.538 25.92 276.498 25.92ZM321.174 30H327.054L319.854 19.48L323.694 17.56C325.174 16.84 325.894 15.72 325.854 14.04L325.694 9.92H320.574L320.774 13.68L311.174 18.48V0.599999H306.014V30H311.174V23.8L315.494 21.64L321.174 30ZM330.272 30H335.432V14.12L345.792 14.4V9.92L333.432 9.6C331.392 9.52 330.272 10.64 330.272 12.68V30Z" fill="black"/>
<path d="M390.68 152.24C390.68 160.44 395.96 163.4 403.2 163.4C409.96 163.4 414.72 160.64 414.72 155.28C414.72 150.56 411.72 149.6 408.12 149V147.68C411.72 147.08 414.32 145.88 414.32 141.96C414.32 137.16 409.96 134.4 403.2 134.4C395.96 134.4 391.08 137.36 391.08 144.24H396.24C396.24 140.44 397.96 138.88 403.2 138.88C407.72 138.88 409.16 140.28 409.16 142.64C409.16 144.96 407.84 146.12 405.04 146.12H401.12V150.6H405.04C407.84 150.6 409.56 151.8 409.56 154.64C409.56 157.52 407.72 158.92 403.2 158.92C397.96 158.92 395.84 157.36 395.84 152.24H390.68ZM431.733 134.4C423.453 134.4 418.773 140.4 418.773 148.88C418.773 157.4 423.453 163.4 431.733 163.4C439.973 163.4 444.653 157.4 444.653 148.88C444.653 140.4 439.973 134.4 431.733 134.4ZM431.733 138.88C433.653 138.88 435.253 139.44 436.493 140.44L424.653 153.84C424.133 152.44 423.893 150.76 423.893 148.88C423.893 142.68 426.693 138.88 431.733 138.88ZM431.733 158.92C429.773 158.92 428.173 158.36 426.933 157.32L438.813 143.96C439.293 145.36 439.533 147 439.533 148.88C439.533 155.12 436.773 158.92 431.733 158.92ZM461.264 134.4C452.984 134.4 448.304 140.4 448.304 148.88C448.304 157.4 452.984 163.4 461.264 163.4C469.504 163.4 474.184 157.4 474.184 148.88C474.184 140.4 469.504 134.4 461.264 134.4ZM461.264 138.88C463.184 138.88 464.784 139.44 466.024 140.44L454.184 153.84C453.664 152.44 453.424 150.76 453.424 148.88C453.424 142.68 456.224 138.88 461.264 138.88ZM461.264 158.92C459.304 158.92 457.704 158.36 456.464 157.32L468.344 143.96C468.824 145.36 469.064 147 469.064 148.88C469.064 155.12 466.304 158.92 461.264 158.92ZM505.94 163H511.82L504.62 152.48L508.46 150.56C509.94 149.84 510.66 148.72 510.62 147.04L510.46 142.92H505.34L505.54 146.68L495.94 151.48V133.6H490.78V163H495.94V156.8L500.26 154.64L505.94 163ZM515.038 163H520.198V147.12L530.558 147.4V142.92L518.198 142.6C516.158 142.52 515.038 143.64 515.038 145.68V163Z" fill="black"/>
</svg>
