<svg width="320" height="378" xmlns="http://www.w3.org/2000/svg" xmlns:xlink="http://www.w3.org/1999/xlink" xml:space="preserve" overflow="hidden"><defs><clipPath id="clip0"><rect x="168" y="-26" width="320" height="378"/></clipPath><clipPath id="clip1"><rect x="169" y="-26" width="319" height="377"/></clipPath><clipPath id="clip2"><rect x="169" y="-26" width="320" height="377"/></clipPath><clipPath id="clip3"><rect x="169" y="-26" width="320" height="377"/></clipPath></defs><g clip-path="url(#clip0)" transform="translate(-168 26)"><g clip-path="url(#clip1)"><g clip-path="url(#clip2)"><g clip-path="url(#clip3)"><path d="M264.138 335.495 264.138 243.994 304.781 243.994 304.781 376.157 0 376.157 0 243.994 40.6438 243.994 40.6438 335.495Z" fill="#BCBBBB" fill-rule="nonzero" fill-opacity="1" transform="matrix(1 0 0 1.00218 169 -25.9889)"/><path d="M233.669 264.326 241.794 233.819 78.2219 200.285 71.1125 233.819ZM93.475 154.525 245.856 225.694 260.075 195.188 107.694 124.038ZM136.131 79.2939 264.138 187.063 285.484 161.653 156.463 53.8845 135.116 79.2939ZM218.434 0 190.994 20.3313 291.578 155.541 319 135.21ZM71.1125 304.988 233.669 304.988 233.669 274.501 71.1125 274.501Z" fill="#F48024" fill-rule="nonzero" fill-opacity="1" transform="matrix(1 0 0 1.00218 169 -25.9889)"/></g></g></g></g></svg>